HIERARCHY
ROOT Hips
{
	OFFSET 0.0000 0.0000 0.0000
	CHANNELS 6 Xposition Yposition Zposition Zrotation Xrotation Yrotation
	JOINT Ab
	{
		OFFSET -0.0000 8.0846 -0.0000
		CHANNELS 3 Zrotation Xrotation Yrotation
		JOINT Chest
		{
			OFFSET -0.0000 25.0068 -0.0000
			CHANNELS 3 Zrotation Xrotation Yrotation
			JOINT Neck
			{
				OFFSET -0.0000 25.0068 0.0000
				CHANNELS 3 Zrotation Xrotation Yrotation
				JOINT Head
				{
					OFFSET -0.0000 10.7556 0.0000
					CHANNELS 3 Zrotation Xrotation Yrotation
					End Site
					{
						OFFSET -0.0000 16.6222 0.0000
					}
				}
			}
			JOINT LeftCollar
			{
				OFFSET -0.0000 25.0068 0.0000
				CHANNELS 3 Zrotation Xrotation Yrotation
				JOINT LeftShoulder
				{
					OFFSET 19.5556 -0.0000 0.0000
					CHANNELS 3 Zrotation Xrotation Yrotation
					JOINT LeftElbow
					{
						OFFSET 27.1828 0.0000 0.0000
						CHANNELS 3 Zrotation Xrotation Yrotation
						JOINT LeftWrist
						{
							OFFSET 23.3157 0.0000 0.0000
							CHANNELS 3 Zrotation Xrotation Yrotation
							End Site
							{
								OFFSET 0.0000 -14.6667 0.0000
							}
						}
					}
				}
			}
			JOINT RightCollar
			{
				OFFSET -0.0000 25.0068 0.0000
				CHANNELS 3 Zrotation Xrotation Yrotation
				JOINT RightShoulder
				{
					OFFSET -19.5556 0.0000 0.0000
					CHANNELS 3 Zrotation Xrotation Yrotation
					JOINT RightElbow
					{
						OFFSET -27.1828 0.0000 0.0000
						CHANNELS 3 Zrotation Xrotation Yrotation
						JOINT RightWrist
						{
							OFFSET -23.3157 0.0000 0.0000
							CHANNELS 3 Zrotation Xrotation Yrotation
							End Site
							{
								OFFSET -0.0000 -14.6667 0.0000
							}
						}
					}
				}
			}
		}
	}
	JOINT LeftHip
	{
		OFFSET 11.7333 0.0000 0.0000
		CHANNELS 3 Zrotation Xrotation Yrotation
		JOINT LeftKnee
		{
			OFFSET -0.0000 -40.8688 0.0000
			CHANNELS 3 Zrotation Xrotation Yrotation
			JOINT LeftAnkle
			{
				OFFSET -0.0000 -44.4337 0.0000
				CHANNELS 3 Zrotation Xrotation Yrotation
				End Site
				{
					OFFSET -0.0000 -4.8889 16.6222
				}
			}
		}
	}
	JOINT RightHip
	{
		OFFSET -11.7333 0.0000 0.0000
		CHANNELS 3 Zrotation Xrotation Yrotation
		JOINT RightKnee
		{
			OFFSET -0.0000 -40.8688 0.0000
			CHANNELS 3 Zrotation Xrotation Yrotation
			JOINT RightAnkle
			{
				OFFSET -0.0000 -44.4337 0.0000
				CHANNELS 3 Zrotation Xrotation Yrotation
				End Site
				{
					OFFSET -0.0000 -4.8889 16.6222
				}
			}
		}
	}
}
MOTION
Frames: 24
Frame Time: 0.010000
-7.5371 86.9772 103.8539 2.7184 0.2572 175.2940 358.6299 2.4169 358.2743 1.1770 14.2527 358.0969 5.0150 350.0881 1.5003 356.5994 19.2480 1.6443 339.7540 359.0952 5.1659 305.9974 27.3454 349.3391 16.7300 354.5912 324.0706 83.8370 0.1004 340.0935 20.5686 359.0111 354.5638 63.4620 36.8179 5.5325 339.7792 354.7838 28.6095 278.0345 352.5663 22.5617 358.7400 4.8608 357.0157 357.8113 10.5440 356.5984 359.6270 348.7781 20.1182 2.3378 333.9889 4.6820 0.3075 17.7913 1.9409 357.6792 350.5833 341.7614 
-7.3863 86.9058 103.3869 2.6325 0.2895 175.5340 358.5630 2.3909 358.3058 1.2710 14.3594 358.1158 5.0815 350.0371 1.3810 356.6310 19.2375 1.5109 339.7483 359.0883 5.0687 305.8935 27.3348 349.5360 16.6807 354.5790 324.0561 83.8204 359.9930 339.8757 20.5587 359.0034 354.4321 63.5032 36.7248 5.4838 339.7974 354.8072 28.6007 278.0360 352.6310 22.5959 358.8149 5.1556 356.9043 357.7200 10.5938 356.4996 359.6097 348.6349 20.0368 2.2836 334.0203 4.7147 0.2799 17.9865 2.0596 357.6048 350.3434 341.6257 
-7.2558 86.8240 102.9384 2.5118 0.1678 175.8731 358.6412 2.3605 358.1755 1.1799 14.2141 357.9999 5.1314 350.0373 1.3216 356.6989 19.2815 1.4420 339.7488 359.0837 5.1293 305.8101 27.2979 349.7732 16.5616 354.6171 324.0522 83.8176 359.9868 339.6340 20.6308 358.9735 354.3594 63.5655 36.6525 5.3034 339.8505 354.8052 28.6461 277.9552 352.7782 22.5219 358.8402 5.1436 356.4967 357.6256 10.8816 356.5451 359.6383 348.3952 20.0470 2.1335 333.8816 4.6142 0.2893 18.3134 2.1341 357.5230 350.2575 341.5157 
-7.0913 86.7575 102.4948 2.4349 0.1457 176.1495 358.6447 2.2717 358.1546 1.1949 14.3036 357.9779 5.0671 350.0013 1.3125 356.8320 19.2805 1.4151 339.7347 359.0647 5.2898 305.6814 27.2262 349.9449 16.2980 354.7299 323.9814 84.3726 0.0272 339.4394 20.6147 358.9716 354.4526 63.6159 36.5846 5.1862 339.9354 354.8232 28.6397 277.8950 352.7409 22.5147 358.8853 5.3487 356.3572 357.6225 10.9700 356.4496 359.6007 348.1604 20.0095 2.0903 333.9583 4.5232 0.2633 18.4865 2.1682 357.4197 350.1143 341.5026 
-6.8943 86.6985 102.0526 2.3799 0.1756 176.3393 358.5767 2.2122 358.2167 1.2956 14.4336 358.0249 5.0868 349.9616 1.2640 356.8880 19.2548 1.3493 339.7467 359.0525 5.2846 305.5091 27.0658 350.1890 16.1713 354.7493 323.8958 84.2531 0.0575 339.2019 20.5868 359.0016 354.4542 63.6406 36.5407 5.1667 339.8918 354.8307 28.5683 278.1800 352.6298 22.6032 358.9846 5.6807 356.3488 357.5953 10.9378 356.3422 359.3056 347.8900 19.8711 2.1627 334.1102 4.6924 0.2246 18.7114 2.1761 357.5394 349.8044 341.4249 
-6.7326 86.6266 101.6042 2.2583 0.0956 176.7085 358.5296 2.0546 358.2040 1.3613 14.5226 358.0040 5.1782 349.9010 1.1357 356.8958 19.2669 1.2044 339.7240 359.0794 5.2225 305.4353 27.0843 350.3463 16.0765 354.7622 323.8841 84.1686 0.1271 338.9878 20.5659 358.9738 354.3266 63.6960 36.4395 5.1077 339.8190 354.8151 28.6279 278.2502 352.6987 22.6743 358.9718 5.8169 356.2282 357.6564 11.0229 356.2089 359.2695 347.6536 19.7523 2.0293 334.1715 4.5131 0.2106 18.9904 2.5006 357.3144 349.6585 341.1032 
-6.5396 86.5607 101.1567 2.1632 0.0373 176.9827 358.5115 1.9155 358.1963 1.3849 14.6332 357.9915 5.1659 349.8262 1.0757 357.0363 19.2590 1.1172 339.7279 359.0621 5.3549 305.3989 27.3201 350.3782 16.1827 354.6736 323.9534 84.0677 0.1049 339.0136 20.5476 358.9708 354.3351 63.7696 36.3987 5.0256 339.8129 354.8175 28.5628 278.3599 352.3698 22.7308 359.0256 5.9880 356.1694 357.6615 11.1018 356.0758 359.3119 347.4634 19.7252 2.0125 334.2682 4.4951 0.1741 19.3328 2.8232 357.5156 349.3928 340.8809 
-6.3221 86.4981 100.6719 2.0995 0.0722 177.2123 358.4587 1.8739 358.2420 1.4700 14.6848 358.0269 5.1469 349.8297 0.9974 357.1503 19.2219 1.0420 339.6504 359.0236 5.4826 305.4629 27.6892 350.4743 16.3528 354.6004 324.0473 83.9460 0.0236 339.1586 20.5295 358.9756 354.3588 63.8560 36.2720 4.9023 339.8701 354.8206 28.5730 278.3301 352.4718 22.8389 359.1345 6.2829 356.1522 357.6183 11.2052 355.9666 359.0782 347.2557 19.6358 2.0766 334.5449 4.6102 0.0620 19.6007 3.5374 357.4572 349.3039 340.4428 
-6.0836 86.4397 100.1871 2.0427 0.0612 177.4402 358.4120 1.7606 358.2787 1.5414 14.7763 358.0541 5.1980 349.8165 0.9012 357.2234 19.1821 0.9401 339.6421 359.0096 5.3649 305.3307 27.3583 350.7827 16.0989 354.7726 323.9043 84.0644 0.0832 338.8481 20.5424 358.9816 354.3462 63.9358 36.1066 4.8059 339.9188 354.8498 28.5494 278.4018 352.3833 22.9415 359.2685 6.5216 356.1141 357.5855 11.3187 355.8962 358.5857 347.0047 19.4261 2.1810 334.7939 4.6391 359.9127 19.8398 4.1717 357.4704 349.4343 340.0516 
-5.8828 86.3813 99.8200 1.9163 359.8399 177.8013 358.4477 1.5477 358.1796 1.4755 14.7683 357.9639 5.2443 349.7428 0.8836 357.3486 19.1940 0.8853 339.5616 359.0288 5.4411 305.5713 27.6130 350.7728 16.1438 354.7386 323.9392 83.8297 0.1488 339.0107 20.5930 358.9837 354.3300 63.9686 36.0798 4.7538 339.9470 354.8528 28.5245 278.3015 352.6914 22.8030 359.3103 6.2630 355.7966 357.5637 11.7904 355.7167 358.3533 346.6299 19.4914 2.1019 334.8324 4.5188 359.9166 19.7945 4.1343 357.6653 349.9298 339.9898 
-5.6635 86.3414 99.4005 1.8482 359.7973 178.0888 358.4091 1.4506 358.2085 1.5591 14.7982 357.9869 5.2057 349.7422 0.8690 357.4000 19.1851 0.8561 339.4567 359.0010 5.4834 305.5708 27.5316 350.9195 16.1267 354.7405 323.9023 83.7670 0.2190 338.9156 20.5867 358.9920 354.4565 64.0757 35.8250 4.5748 340.0306 354.8702 28.5382 278.3208 352.6691 22.9559 359.3732 6.3959 355.6916 357.6323 11.9329 355.5647 358.2352 346.4137 19.4443 2.1062 335.1291 4.5232 359.9988 19.4955 3.4790 357.9150 350.7336 340.0869 
-5.4319 86.3237 98.9787 1.8610 359.8000 178.3357 358.5494 1.3535 358.1759 1.4995 14.9431 357.9602 5.1584 349.7654 0.8062 357.5746 19.0561 0.7548 339.4615 359.0222 5.3900 305.4418 26.9224 351.1212 15.7591 354.9028 323.8961 83.9406 0.2239 338.3312 20.6403 358.9973 354.5130 64.0672 35.8932 4.5836 339.9736 354.8579 28.4442 278.3472 352.7552 22.8240 359.5107 6.5338 355.6002 357.7155 12.1574 355.4572 358.0814 346.1970 19.4327 2.2083 335.4405 4.5088 359.9566 19.3408 3.2415 358.1783 351.5663 340.2903 
-5.1844 86.3107 98.4443 1.9130 359.7787 178.5643 358.7027 1.2772 358.1680 1.5015 14.9938 357.9542 5.0125 349.9407 0.7526 357.8893 18.7779 0.6762 339.3979 359.0062 5.4809 305.4186 26.9317 351.2054 15.8607 354.8122 324.0063 83.8639 0.2525 338.2012 20.6625 359.0240 354.6570 64.1084 35.7489 4.4989 340.1594 354.9246 28.4953 277.9593 353.1147 23.0103 359.7080 6.6580 355.5094 357.7881 12.4980 355.2631 357.9651 346.0948 19.5927 2.3315 335.6437 4.4388 359.9699 19.4982 3.1797 358.2638 352.3818 340.3294 
-4.9321 86.3054 97.8792 1.9943 359.7738 178.7790 358.8921 1.2257 358.1576 1.5025 15.0343 357.9448 5.0304 349.9484 0.7114 357.9729 18.7649 0.6192 339.4017 359.0268 5.4277 305.2052 26.4560 351.4400 15.7271 354.8808 324.0499 83.9348 0.2969 337.8039 20.6808 359.0471 354.7561 64.1019 35.6454 4.4768 340.3373 354.9796 28.5126 277.7123 353.3355 23.2790 0.0061 6.8278 354.8132 357.6120 12.8229 355.5420 357.8252 345.9700 19.6654 2.4691 335.8231 4.5111 0.1033 19.8000 2.9152 358.1558 353.2195 340.2957 
-4.6741 86.3047 97.3317 2.0944 359.7257 178.9939 359.1322 1.1267 358.1046 1.4561 15.1090 357.9003 5.0259 349.9191 0.6923 358.0996 18.7447 0.5845 339.4662 359.0378 5.3605 304.9346 25.8734 351.6950 15.5797 354.9531 324.0434 84.0602 0.3046 337.3488 20.6930 359.0711 354.8744 64.0831 35.6596 4.5017 340.3612 354.9941 28.3977 277.5164 353.4084 23.2025 0.3194 6.8883 354.2735 357.4752 13.2473 355.7342 357.5171 345.8139 19.6751 2.6123 335.8750 4.4489 0.2612 20.2679 2.7080 357.7512 353.8509 340.1683 
-4.4163 86.3148 96.8406 2.2026 359.6978 179.2013 359.0995 1.2425 358.2373 1.8010 14.8344 357.9904 5.0860 350.0930 0.5914 358.0045 18.6554 0.4914 339.3224 359.0468 5.2067 304.6687 25.4590 352.0775 15.5401 354.9594 324.1310 84.0303 0.3991 336.9683 20.5910 359.0702 354.7843 64.0540 36.0649 4.4816 340.0635 354.9021 28.1385 277.7297 353.1619 23.0354 0.5553 6.9884 354.2940 357.6185 13.5522 355.5729 357.2497 345.7158 19.5428 2.7747 335.9891 4.6302 0.4530 20.5821 2.2372 357.5991 354.0710 340.1933 
-4.1542 86.3338 96.3678 2.3184 359.6683 179.3946 359.4620 1.0985 358.0701 1.5696 15.0657 357.8564 5.1909 349.9017 0.5649 358.1226 18.7153 0.4367 339.6031 359.0890 5.0803 304.2625 24.7616 352.2341 15.3838 355.0249 324.1266 84.0784 0.5651 336.5468 20.6692 359.0932 354.9496 64.0180 35.6060 4.5892 340.2443 355.0032 28.1475 278.0249 353.1757 23.4185 0.8447 7.0190 354.0889 357.6042 13.9514 355.6023 356.9662 345.6240 19.5083 2.9536 336.0509 4.3581 0.4663 20.9645 2.5104 357.0032 354.1709 339.9007 
-3.8789 86.3613 95.8900 2.4529 359.6861 179.6118 359.3961 1.2694 358.1954 1.9591 14.7946 357.9353 5.2155 350.0371 0.4855 358.0930 18.6789 0.3668 339.4767 359.1181 4.8445 303.9608 23.9885 352.7115 15.1367 355.1331 324.0545 84.1641 0.6964 336.0715 20.5563 359.0748 354.8886 63.9623 36.1110 4.5934 339.9139 354.9011 27.9431 278.0335 353.1554 22.9911 1.1720 7.0934 353.8670 357.5763 14.3641 355.6595 356.5730 345.5533 19.4142 3.1650 336.1927 4.1466 0.4811 21.3450 2.6990 356.7077 354.1384 339.7250 
-3.6056 86.4006 95.4707 2.5650 359.7063 179.8850 359.5039 1.2735 358.1249 2.0600 14.8375 357.8509 5.2985 349.9507 0.3538 358.2130 18.7341 0.2033 339.5630 359.1676 4.5567 303.7369 23.5257 352.9076 15.0318 355.1669 324.1127 84.2718 0.6928 335.8407 20.5631 359.0665 354.8194 63.8815 36.0462 4.7367 339.8293 354.9129 27.8835 278.3153 353.1524 23.1491 1.4705 7.1321 353.7174 357.5969 14.7627 355.5542 356.2013 345.4464 19.3488 3.3575 336.3964 3.9095 0.4762 21.5927 2.9197 356.5115 354.0208 339.5292 
-3.3343 86.4525 95.0714 2.6495 359.6892 180.1686 359.5535 1.2506 358.0622 2.1937 14.8508 357.7703 5.3824 349.9221 0.3001 358.2210 18.7397 0.1417 339.6143 359.1941 4.5123 303.6428 23.1168 352.8624 14.7000 355.3289 324.2072 84.5742 0.8311 335.6678 20.5576 359.0572 354.8464 63.7294 36.0478 4.8798 339.8310 354.9193 27.9315 278.3700 353.3697 23.2768 1.7453 7.1140 353.5570 357.5832 15.1664 355.5351 355.8389 345.4023 19.2847 3.5475 336.5853 3.7472 0.4467 21.7781 3.1354 356.3452 353.8845 339.2849 
-3.0652 86.5145 94.6671 2.7080 359.6727 180.4614 359.5735 1.2014 357.9965 2.3259 14.8963 357.6852 5.4752 349.8609 0.2332 358.2280 18.7658 0.0593 339.5957 359.1783 4.7297 303.8588 24.1439 352.4326 15.1754 355.0722 324.5996 84.3672 0.7491 336.3655 20.5628 359.0588 354.8016 63.4842 36.1453 5.1238 339.8722 354.9483 27.8664 278.3412 353.3309 23.3344 1.9965 7.0942 353.4156 357.5689 15.5521 355.5323 355.3633 345.5300 19.2597 3.7142 336.8458 3.5967 0.4345 21.8258 3.1942 356.0319 353.6926 339.0919 
-2.7811 86.5809 94.1398 2.7619 359.6401 180.7522 359.5786 1.1016 357.9321 2.4920 14.9600 357.5992 5.5369 349.8387 0.1751 358.2904 18.7291 359.9876 339.6069 359.1958 4.5624 303.7705 23.8110 352.6295 14.9538 355.2060 324.5287 84.4308 0.7841 336.1593 20.5616 359.0496 354.7965 63.3095 36.1567 5.2960 339.8259 354.9643 27.7668 278.1659 352.9064 22.8073 2.2515 6.9979 353.3366 357.5111 16.1471 355.8709 356.3958 345.6424 19.2606 3.8832 337.1357 3.4689 0.4360 21.9188 3.2469 355.9087 353.5069 338.9931 
-2.4757 86.6431 93.5807 2.7997 359.6540 181.0922 359.5275 1.0489 357.8519 2.7052 15.0119 357.4889 5.5948 349.8111 0.0942 358.3609 18.6913 359.8909 339.6110 359.2012 4.4214 303.7275 23.6537 352.7275 14.7794 355.2698 324.4770 84.4989 0.7325 335.8489 20.5810 359.0388 354.7468 63.1128 36.1966 5.5068 339.8594 354.9678 27.8084 278.3900 352.9300 23.4770 2.5260 6.9042 353.2531 357.4697 16.8454 355.9233 355.4895 345.6273 18.8837 4.0406 337.5398 3.4222 0.4810 21.8811 2.8999 355.8881 353.3685 339.1871 
-2.2025 86.7130 93.0387 2.8016 359.5912 181.3586 359.5182 0.9333 357.7977 2.8224 15.0398 357.4191 5.5947 349.7909 0.0295 358.4906 18.6585 359.8098 339.6141 359.2285 4.3693 303.7293 23.6459 352.7195 14.6570 355.3205 324.3786 84.4640 0.9544 335.6969 20.5680 359.0327 354.7516 62.9767 36.2706 5.6543 339.6945 354.9190 27.6476 278.6730 352.2681 23.2626 2.7201 6.6983 353.2617 357.4530 17.6137 355.9557 354.8169 345.8143 18.5807 4.1213 337.8205 3.1957 0.5037 21.9258 3.0258 355.8974 353.1969 339.1607 
